<svg width="512" height="512" viewBox="0 0 512 512" xmlns="http://www.w3.org/2000/svg">
  <!-- Background circle -->
  <circle cx="256" cy="256" r="240" fill="url(#gradient)" stroke="#ffffff" stroke-width="16"/>

  <!-- Gradient definition -->
  <defs>
    <linearGradient id="gradient" x1="0%" y1="0%" x2="100%" y2="100%">
      <stop offset="0%" style="stop-color:#6366f1;stop-opacity:1" />
      <stop offset="100%" style="stop-color:#8b5cf6;stop-opacity:1" />
    </linearGradient>
    <filter id="shadow">
      <feDropShadow dx="4" dy="6" stdDeviation="4" flood-opacity="0.25"/>
    </filter>
    <filter id="shadowLight">
      <feDropShadow dx="2" dy="3" stdDeviation="2" flood-opacity="0.15"/>
    </filter>
  </defs>

  <!-- Large vertical flute section (right side) -->
  <g filter="url(#shadow)">
    <!-- Main flute body -->
    <rect x="320" y="50" width="120" height="412" rx="60" fill="#ffffff"/>

    <!-- Silver joint rings -->
    <rect x="320" y="140" width="120" height="12" fill="#e5e7eb"/>
    <rect x="320" y="280" width="120" height="12" fill="#e5e7eb"/>
    <rect x="320" y="380" width="120" height="12" fill="#e5e7eb"/>

    <!-- Large tone holes -->
    <ellipse cx="380" cy="190" rx="28" ry="20" fill="#d1d5db"/>
    <ellipse cx="380" cy="250" rx="28" ry="20" fill="#d1d5db"/>
    <ellipse cx="380" cy="330" rx="28" ry="20" fill="#d1d5db"/>

    <!-- Key mechanisms -->
    <rect x="345" y="185" width="70" height="10" rx="5" fill="#9ca3af"/>
    <rect x="345" y="245" width="70" height="10" rx="5" fill="#9ca3af"/>
    <rect x="345" y="325" width="70" height="10" rx="5" fill="#9ca3af"/>

    <!-- Key pads (circles on the mechanisms) -->
    <circle cx="380" cy="190" r="18" fill="#f3f4f6" opacity="0.8"/>
    <circle cx="380" cy="250" r="18" fill="#f3f4f6" opacity="0.8"/>
    <circle cx="380" cy="330" r="18" fill="#f3f4f6" opacity="0.8"/>
  </g>

  <!-- Large musical note (left side) -->
  <g filter="url(#shadowLight)">
    <text x="100" y="320" font-family="Georgia, serif" font-size="200" fill="#ffffff" font-weight="bold">♪</text>
  </g>
</svg>